{"title":"Dabangg 2 (2012) DVDScr XviD Esubs - Exclusive","uid":7951634,"size":732398757,"categoryP":"video","categoryS":"movies","magnet":"?xt=urn:btih:0bcdaa3fcf6f41dae2338b5ae35f8d07c2ab1fca&amp;dn=Dabangg+2+%282012%29+DVDScr+XviD+Esubs+-+Exclusive&amp;tr=udp%3A%2F%2Ftracker.openbittorrent.com%3A80&amp;tr=udp%3A%2F%2Fopen.demonii.com%3A1337&amp;tr=udp%3A%2F%2Ftracker.coppersurfer.tk%3A6969&amp;tr=udp%3A%2F%2Fexodus.desync.com%3A6969","seeders":0,"leechers":0,"uploader":"tykoon123","files":-1,"time":1356292144,"description":"Poster: &lt;a href=&quot;\nhttp://imgr.us/images/4a0ld17n448d1lney0zf.jpg&quot; rel=&quot;nofollow&quot; target=&quot;_NEW&quot;&gt;\nhttp://imgr.us/images/4a0ld17n448d1lney0zf.jpg&lt;/a&gt;\n\nInfo:\n\nFormat : AVI\nFormat/Info : Audio Video Interleave\nFile size : 698 MiB\nDuration : 1h 59mn\nOverall bit rate : 820 Kbps\nWriting application : VirtualDubMod 1.5.10.2 (build 2540/release)\nWriting library : VirtualDubMod build 2540/release\n\nVideo\nID : 0\nFormat : MPEG-4 Visual\nFormat profile : Advanced Simple@L5\nFormat settings, BVOP : 1\nFormat settings, QPel : No\nFormat settings, GMC : No warppoints\nFormat settings, Matrix : Default (H.263)\nCodec ID : XVID\nCodec ID/Hint : XviD\nDuration : 1h 59mn\nBit rate : 730 Kbps\nWidth : 656 pixels\nHeight : 256 pixels\nDisplay aspect ratio : 2.667\nFrame rate : 23.976 fps\nColor space : YUV\nChroma subsampling : 4:2:0\nBit depth : 8 bits\nScan type : Progressive\nCompression mode : Lossy\nBits/(Pixel*Frame) : 0.181\nStream size : 622 MiB (89%)\nWriting library : XviD 1.2.1 (UTC 2008-12-04)\n\nAudio\nID : 1\nFormat : MPEG Audio\nFormat version : Version 1\nFormat profile : Layer 3\nMode : Joint stereo\nMode extension : MS Stereo\nCodec ID : 55\nCodec ID/Hint : MP3\nDuration : 1h 59mn\nBit rate mode : Constant\nBit rate : 80.0 Kbps\nChannel(s) : 2 channels\nSampling rate : 32.0 KHz\nCompression mode : Lossy\nStream size : 68.2 MiB (10%)\nAlignment : Aligned on interleaves\nInterleave, duration : 42 ms (1.00 video frame)\nInterleave, preload duration : 504 ms\nWriting library : LAME\u0002WY6B\n\nScreens: &lt;a href=&quot;\nhttp://imgr.us/images/enwlbbtsbtn4atbknnwq.jpg&quot; rel=&quot;nofollow&quot; target=&quot;_NEW&quot;&gt;\nhttp://imgr.us/images/enwlbbtsbtn4atbknnwq.jpg&lt;/a&gt; &lt;a href=&quot;\nhttp://imgr.us/images/hk5rsl36ke2fks5xo54t.png&quot; rel=&quot;nofollow&quot; target=&quot;_NEW&quot;&gt;\nhttp://imgr.us/images/hk5rsl36ke2fks5xo54t.png&lt;/a&gt; &lt;a href=&quot;\nhttp://imgr.us/images/8534b95vs631l82v0zm.jpg&quot; rel=&quot;nofollow&quot; target=&quot;_NEW&quot;&gt;\nhttp://imgr.us/images/8534b95vs631l82v0zm.jpg&lt;/a&gt; &lt;a href=&quot;\nhttp://imgr.us/images/24fftn7dxo3n8rnjovz.png&quot; rel=&quot;nofollow&quot; target=&quot;_NEW&quot;&gt;\nhttp://imgr.us/images/24fftn7dxo3n8rnjovz.png&lt;/a&gt; &lt;a href=&quot;\nhttp://imgr.us/images/chb4bhminvsqenbhxm8p.jpg&quot; rel=&quot;nofollow&quot; target=&quot;_NEW&quot;&gt;\nhttp://imgr.us/images/chb4bhminvsqenbhxm8p.jpg&lt;/a&gt; &lt;a href=&quot;\nhttp://imgr.us/images/945zf8mvv0khb3fjxnlj.png&quot; rel=&quot;nofollow&quot; target=&quot;_NEW&quot;&gt;\nhttp://imgr.us/images/945zf8mvv0khb3fjxnlj.png&lt;/a&gt;\n\n\n\n\n","torrent":{"xt":"urn:btih:0bcdaa3fcf6f41dae2338b5ae35f8d07c2ab1fca","amp;dn":"Dabangg+2+%282012%29+DVDScr+XviD+Esubs+-+Exclusive","amp;tr":["udp%3A%2F%2Ftracker.openbittorrent.com%3A80","udp%3A%2F%2Fopen.demonii.com%3A1337","udp%3A%2F%2Ftracker.coppersurfer.tk%3A6969","udp%3A%2F%2Fexodus.desync.com%3A6969"],"infoHash":"0bcdaa3fcf6f41dae2338b5ae35f8d07c2ab1fca","infoHashBuffer":{"type":"Buffer","data":[11,205,170,63,207,111,65,218,226,51,139,90,227,95,141,7,194,171,31,202]},"announce":[],"urlList":[]}}